<mxfile host="app.diagrams.net" modified="2022-06-20T13:11:53.657Z" agent="5.0 (Windows NT 10.0; Win64; x64) AppleWebKit/537.36 (KHTML, like Gecko) Chrome/102.0.0.0 Safari/537.36" etag="xTdxpwTWse0E0ny4GkLd" version="20.0.1" type="github">
  <diagram id="C5RBs43oDa-KdzZeNtuy" name="Page-1">
    <mxGraphModel dx="2554" dy="554" grid="1" gridSize="10" guides="1" tooltips="1" connect="1" arrows="1" fold="1" page="1" pageScale="1" pageWidth="827" pageHeight="1169" math="0" shadow="0">
      <root>
        <mxCell id="WIyWlLk6GJQsqaUBKTNV-0" />
        <mxCell id="WIyWlLk6GJQsqaUBKTNV-1" parent="WIyWlLk6GJQsqaUBKTNV-0" />
        <mxCell id="WIyWlLk6GJQsqaUBKTNV-2" value="" style="rounded=0;html=1;jettySize=auto;orthogonalLoop=1;fontSize=11;endArrow=block;endFill=0;endSize=8;strokeWidth=1;shadow=0;labelBackgroundColor=none;edgeStyle=orthogonalEdgeStyle;" parent="WIyWlLk6GJQsqaUBKTNV-1" source="WIyWlLk6GJQsqaUBKTNV-3" target="WIyWlLk6GJQsqaUBKTNV-6" edge="1">
          <mxGeometry relative="1" as="geometry" />
        </mxCell>
        <mxCell id="WIyWlLk6GJQsqaUBKTNV-3" value="Owner for the Site" style="rounded=1;whiteSpace=wrap;html=1;fontSize=12;glass=0;strokeWidth=1;shadow=0;" parent="WIyWlLk6GJQsqaUBKTNV-1" vertex="1">
          <mxGeometry x="160" y="80" width="120" height="40" as="geometry" />
        </mxCell>
        <mxCell id="WIyWlLk6GJQsqaUBKTNV-5" value="No" style="edgeStyle=orthogonalEdgeStyle;rounded=0;html=1;jettySize=auto;orthogonalLoop=1;fontSize=11;endArrow=block;endFill=0;endSize=8;strokeWidth=1;shadow=0;labelBackgroundColor=none;" parent="WIyWlLk6GJQsqaUBKTNV-1" source="WIyWlLk6GJQsqaUBKTNV-6" target="WIyWlLk6GJQsqaUBKTNV-7" edge="1">
          <mxGeometry y="10" relative="1" as="geometry">
            <mxPoint as="offset" />
          </mxGeometry>
        </mxCell>
        <mxCell id="WFgXaqNdC1Ujew3TNshF-25" value="" style="edgeStyle=orthogonalEdgeStyle;rounded=0;orthogonalLoop=1;jettySize=auto;html=1;" edge="1" parent="WIyWlLk6GJQsqaUBKTNV-1" source="WIyWlLk6GJQsqaUBKTNV-6" target="WFgXaqNdC1Ujew3TNshF-24">
          <mxGeometry relative="1" as="geometry" />
        </mxCell>
        <mxCell id="WIyWlLk6GJQsqaUBKTNV-6" value="Is there an Owner" style="rhombus;whiteSpace=wrap;html=1;shadow=0;fontFamily=Helvetica;fontSize=12;align=center;strokeWidth=1;spacing=6;spacingTop=-4;" parent="WIyWlLk6GJQsqaUBKTNV-1" vertex="1">
          <mxGeometry x="170" y="170" width="100" height="80" as="geometry" />
        </mxCell>
        <mxCell id="WFgXaqNdC1Ujew3TNshF-27" value="" style="edgeStyle=orthogonalEdgeStyle;rounded=0;orthogonalLoop=1;jettySize=auto;html=1;" edge="1" parent="WIyWlLk6GJQsqaUBKTNV-1" source="WIyWlLk6GJQsqaUBKTNV-7" target="WFgXaqNdC1Ujew3TNshF-26">
          <mxGeometry relative="1" as="geometry" />
        </mxCell>
        <mxCell id="WIyWlLk6GJQsqaUBKTNV-7" value="Don&#39;t Migrate" style="rounded=1;whiteSpace=wrap;html=1;fontSize=12;glass=0;strokeWidth=1;shadow=0;" parent="WIyWlLk6GJQsqaUBKTNV-1" vertex="1">
          <mxGeometry x="320" y="190" width="120" height="40" as="geometry" />
        </mxCell>
        <mxCell id="WFgXaqNdC1Ujew3TNshF-1" value="" style="edgeStyle=orthogonalEdgeStyle;rounded=0;orthogonalLoop=1;jettySize=auto;html=1;" edge="1" parent="WIyWlLk6GJQsqaUBKTNV-1" source="WIyWlLk6GJQsqaUBKTNV-10" target="WFgXaqNdC1Ujew3TNshF-0">
          <mxGeometry relative="1" as="geometry" />
        </mxCell>
        <mxCell id="WFgXaqNdC1Ujew3TNshF-2" style="edgeStyle=orthogonalEdgeStyle;rounded=0;orthogonalLoop=1;jettySize=auto;html=1;exitX=1;exitY=0.5;exitDx=0;exitDy=0;entryX=0;entryY=0.5;entryDx=0;entryDy=0;" edge="1" parent="WIyWlLk6GJQsqaUBKTNV-1" source="WIyWlLk6GJQsqaUBKTNV-10" target="WIyWlLk6GJQsqaUBKTNV-12">
          <mxGeometry relative="1" as="geometry" />
        </mxCell>
        <mxCell id="WFgXaqNdC1Ujew3TNshF-3" style="edgeStyle=orthogonalEdgeStyle;rounded=0;orthogonalLoop=1;jettySize=auto;html=1;exitX=0.5;exitY=1;exitDx=0;exitDy=0;" edge="1" parent="WIyWlLk6GJQsqaUBKTNV-1" source="WIyWlLk6GJQsqaUBKTNV-10" target="WIyWlLk6GJQsqaUBKTNV-11">
          <mxGeometry relative="1" as="geometry" />
        </mxCell>
        <mxCell id="WIyWlLk6GJQsqaUBKTNV-10" value="What Type of Site do you require?" style="rhombus;whiteSpace=wrap;html=1;shadow=0;fontFamily=Helvetica;fontSize=12;align=center;strokeWidth=1;spacing=6;spacingTop=-4;" parent="WIyWlLk6GJQsqaUBKTNV-1" vertex="1">
          <mxGeometry x="-247.5" y="780" width="175" height="125" as="geometry" />
        </mxCell>
        <mxCell id="WFgXaqNdC1Ujew3TNshF-22" style="edgeStyle=orthogonalEdgeStyle;rounded=0;orthogonalLoop=1;jettySize=auto;html=1;exitX=0.5;exitY=1;exitDx=0;exitDy=0;entryX=0.5;entryY=0;entryDx=0;entryDy=0;" edge="1" parent="WIyWlLk6GJQsqaUBKTNV-1" source="WIyWlLk6GJQsqaUBKTNV-11" target="WFgXaqNdC1Ujew3TNshF-19">
          <mxGeometry relative="1" as="geometry" />
        </mxCell>
        <mxCell id="WIyWlLk6GJQsqaUBKTNV-11" value="Team Site" style="rounded=1;whiteSpace=wrap;html=1;fontSize=12;glass=0;strokeWidth=1;shadow=0;" parent="WIyWlLk6GJQsqaUBKTNV-1" vertex="1">
          <mxGeometry x="-470" y="1080" width="120" height="40" as="geometry" />
        </mxCell>
        <mxCell id="WFgXaqNdC1Ujew3TNshF-23" style="edgeStyle=orthogonalEdgeStyle;rounded=0;orthogonalLoop=1;jettySize=auto;html=1;entryX=1;entryY=0.5;entryDx=0;entryDy=0;" edge="1" parent="WIyWlLk6GJQsqaUBKTNV-1" source="WIyWlLk6GJQsqaUBKTNV-12" target="WFgXaqNdC1Ujew3TNshF-19">
          <mxGeometry relative="1" as="geometry">
            <Array as="points">
              <mxPoint x="-80" y="1265" />
            </Array>
          </mxGeometry>
        </mxCell>
        <mxCell id="WIyWlLk6GJQsqaUBKTNV-12" value="Communication Site" style="rounded=1;whiteSpace=wrap;html=1;fontSize=12;glass=0;strokeWidth=1;shadow=0;" parent="WIyWlLk6GJQsqaUBKTNV-1" vertex="1">
          <mxGeometry x="-130" y="960" width="120" height="40" as="geometry" />
        </mxCell>
        <mxCell id="WFgXaqNdC1Ujew3TNshF-21" style="edgeStyle=orthogonalEdgeStyle;rounded=0;orthogonalLoop=1;jettySize=auto;html=1;entryX=0;entryY=0.5;entryDx=0;entryDy=0;" edge="1" parent="WIyWlLk6GJQsqaUBKTNV-1" source="WFgXaqNdC1Ujew3TNshF-0" target="WFgXaqNdC1Ujew3TNshF-19">
          <mxGeometry relative="1" as="geometry">
            <Array as="points">
              <mxPoint x="-710" y="1265" />
            </Array>
          </mxGeometry>
        </mxCell>
        <mxCell id="WFgXaqNdC1Ujew3TNshF-0" value="Classic Site Template" style="whiteSpace=wrap;html=1;shadow=0;strokeWidth=1;spacing=6;spacingTop=-4;" vertex="1" parent="WIyWlLk6GJQsqaUBKTNV-1">
          <mxGeometry x="-770" y="940" width="120" height="60" as="geometry" />
        </mxCell>
        <mxCell id="WFgXaqNdC1Ujew3TNshF-6" value="Yes" style="edgeStyle=orthogonalEdgeStyle;rounded=0;orthogonalLoop=1;jettySize=auto;html=1;entryX=0.5;entryY=0;entryDx=0;entryDy=0;" edge="1" parent="WIyWlLk6GJQsqaUBKTNV-1" source="WFgXaqNdC1Ujew3TNshF-4" target="WFgXaqNdC1Ujew3TNshF-0">
          <mxGeometry relative="1" as="geometry" />
        </mxCell>
        <mxCell id="WFgXaqNdC1Ujew3TNshF-8" value="No" style="edgeStyle=orthogonalEdgeStyle;rounded=0;orthogonalLoop=1;jettySize=auto;html=1;entryX=0.5;entryY=0;entryDx=0;entryDy=0;" edge="1" parent="WIyWlLk6GJQsqaUBKTNV-1" source="WFgXaqNdC1Ujew3TNshF-4" target="WIyWlLk6GJQsqaUBKTNV-10">
          <mxGeometry relative="1" as="geometry">
            <mxPoint x="-410" y="830" as="targetPoint" />
          </mxGeometry>
        </mxCell>
        <mxCell id="WFgXaqNdC1Ujew3TNshF-4" value="Do you Use Infopath?" style="rhombus;whiteSpace=wrap;html=1;shadow=0;fontFamily=Helvetica;fontSize=12;align=center;strokeWidth=1;spacing=6;spacingTop=-4;" vertex="1" parent="WIyWlLk6GJQsqaUBKTNV-1">
          <mxGeometry x="-550" y="730" width="100" height="80" as="geometry" />
        </mxCell>
        <mxCell id="WFgXaqNdC1Ujew3TNshF-15" value="Yes" style="edgeStyle=orthogonalEdgeStyle;rounded=0;orthogonalLoop=1;jettySize=auto;html=1;entryX=0.5;entryY=0;entryDx=0;entryDy=0;" edge="1" parent="WIyWlLk6GJQsqaUBKTNV-1" source="WFgXaqNdC1Ujew3TNshF-13" target="WFgXaqNdC1Ujew3TNshF-4">
          <mxGeometry relative="1" as="geometry">
            <mxPoint x="-360" y="680" as="targetPoint" />
          </mxGeometry>
        </mxCell>
        <mxCell id="WFgXaqNdC1Ujew3TNshF-13" value="Do you have any customizations on your site?" style="rhombus;whiteSpace=wrap;html=1;shadow=0;fontFamily=Helvetica;fontSize=12;align=center;strokeWidth=1;spacing=6;spacingTop=-4;" vertex="1" parent="WIyWlLk6GJQsqaUBKTNV-1">
          <mxGeometry x="-765" y="610" width="300" height="140" as="geometry" />
        </mxCell>
        <mxCell id="WFgXaqNdC1Ujew3TNshF-19" value="Do you require Workflows?" style="rhombus;whiteSpace=wrap;html=1;shadow=0;fontFamily=Helvetica;fontSize=12;align=center;strokeWidth=1;spacing=6;spacingTop=-4;" vertex="1" parent="WIyWlLk6GJQsqaUBKTNV-1">
          <mxGeometry x="-465" y="1210" width="110" height="110" as="geometry" />
        </mxCell>
        <mxCell id="WFgXaqNdC1Ujew3TNshF-29" value="" style="edgeStyle=orthogonalEdgeStyle;rounded=0;orthogonalLoop=1;jettySize=auto;html=1;" edge="1" parent="WIyWlLk6GJQsqaUBKTNV-1" source="WFgXaqNdC1Ujew3TNshF-24" target="WFgXaqNdC1Ujew3TNshF-28">
          <mxGeometry relative="1" as="geometry" />
        </mxCell>
        <mxCell id="WFgXaqNdC1Ujew3TNshF-24" value="Capture Justification and Ownership in Site Owners List." style="whiteSpace=wrap;html=1;shadow=0;strokeWidth=1;spacing=6;spacingTop=-4;" vertex="1" parent="WIyWlLk6GJQsqaUBKTNV-1">
          <mxGeometry x="-20" y="180" width="120" height="60" as="geometry" />
        </mxCell>
        <mxCell id="WFgXaqNdC1Ujew3TNshF-35" value="" style="edgeStyle=orthogonalEdgeStyle;rounded=0;orthogonalLoop=1;jettySize=auto;html=1;" edge="1" parent="WIyWlLk6GJQsqaUBKTNV-1" source="WFgXaqNdC1Ujew3TNshF-26" target="WFgXaqNdC1Ujew3TNshF-34">
          <mxGeometry relative="1" as="geometry" />
        </mxCell>
        <mxCell id="WFgXaqNdC1Ujew3TNshF-26" value="Communicate that the site is out of compliance" style="rhombus;whiteSpace=wrap;html=1;rounded=1;glass=0;strokeWidth=1;shadow=0;" vertex="1" parent="WIyWlLk6GJQsqaUBKTNV-1">
          <mxGeometry x="550" y="130" width="230" height="160" as="geometry" />
        </mxCell>
        <mxCell id="WFgXaqNdC1Ujew3TNshF-31" value="" style="edgeStyle=orthogonalEdgeStyle;rounded=0;orthogonalLoop=1;jettySize=auto;html=1;" edge="1" parent="WIyWlLk6GJQsqaUBKTNV-1" source="WFgXaqNdC1Ujew3TNshF-28" target="WFgXaqNdC1Ujew3TNshF-30">
          <mxGeometry relative="1" as="geometry" />
        </mxCell>
        <mxCell id="WFgXaqNdC1Ujew3TNshF-33" value="" style="edgeStyle=orthogonalEdgeStyle;rounded=0;orthogonalLoop=1;jettySize=auto;html=1;" edge="1" parent="WIyWlLk6GJQsqaUBKTNV-1" source="WFgXaqNdC1Ujew3TNshF-28" target="WFgXaqNdC1Ujew3TNshF-32">
          <mxGeometry relative="1" as="geometry" />
        </mxCell>
        <mxCell id="WFgXaqNdC1Ujew3TNshF-28" value="What is the purpose of the site" style="rhombus;whiteSpace=wrap;html=1;shadow=0;strokeWidth=1;spacing=6;spacingTop=-4;" vertex="1" parent="WIyWlLk6GJQsqaUBKTNV-1">
          <mxGeometry x="-200" y="170" width="80" height="80" as="geometry" />
        </mxCell>
        <mxCell id="WFgXaqNdC1Ujew3TNshF-30" value="Communications" style="ellipse;whiteSpace=wrap;html=1;shadow=0;strokeWidth=1;spacing=6;spacingTop=-4;" vertex="1" parent="WIyWlLk6GJQsqaUBKTNV-1">
          <mxGeometry x="-367.5" y="180" width="120" height="60" as="geometry" />
        </mxCell>
        <mxCell id="WFgXaqNdC1Ujew3TNshF-32" value="Collaboration" style="whiteSpace=wrap;html=1;shadow=0;strokeWidth=1;spacing=6;spacingTop=-4;" vertex="1" parent="WIyWlLk6GJQsqaUBKTNV-1">
          <mxGeometry x="-220" y="280" width="120" height="60" as="geometry" />
        </mxCell>
        <mxCell id="WFgXaqNdC1Ujew3TNshF-37" value="" style="edgeStyle=orthogonalEdgeStyle;rounded=0;orthogonalLoop=1;jettySize=auto;html=1;" edge="1" parent="WIyWlLk6GJQsqaUBKTNV-1" source="WFgXaqNdC1Ujew3TNshF-34" target="WFgXaqNdC1Ujew3TNshF-36">
          <mxGeometry relative="1" as="geometry" />
        </mxCell>
        <mxCell id="WFgXaqNdC1Ujew3TNshF-34" value="2 Week reminder email" style="whiteSpace=wrap;html=1;rounded=1;glass=0;strokeWidth=1;shadow=0;" vertex="1" parent="WIyWlLk6GJQsqaUBKTNV-1">
          <mxGeometry x="605" y="420" width="120" height="60" as="geometry" />
        </mxCell>
        <mxCell id="WFgXaqNdC1Ujew3TNshF-39" value="" style="edgeStyle=orthogonalEdgeStyle;rounded=0;orthogonalLoop=1;jettySize=auto;html=1;" edge="1" parent="WIyWlLk6GJQsqaUBKTNV-1" source="WFgXaqNdC1Ujew3TNshF-36" target="WFgXaqNdC1Ujew3TNshF-38">
          <mxGeometry relative="1" as="geometry" />
        </mxCell>
        <mxCell id="WFgXaqNdC1Ujew3TNshF-36" value="Lock the site as REad only" style="whiteSpace=wrap;html=1;rounded=1;glass=0;strokeWidth=1;shadow=0;" vertex="1" parent="WIyWlLk6GJQsqaUBKTNV-1">
          <mxGeometry x="605" y="560" width="120" height="60" as="geometry" />
        </mxCell>
        <mxCell id="WFgXaqNdC1Ujew3TNshF-41" value="" style="edgeStyle=orthogonalEdgeStyle;rounded=0;orthogonalLoop=1;jettySize=auto;html=1;" edge="1" parent="WIyWlLk6GJQsqaUBKTNV-1" source="WFgXaqNdC1Ujew3TNshF-38" target="WFgXaqNdC1Ujew3TNshF-40">
          <mxGeometry relative="1" as="geometry" />
        </mxCell>
        <mxCell id="WFgXaqNdC1Ujew3TNshF-38" value="1 month reminders &amp;amp; manager" style="whiteSpace=wrap;html=1;rounded=1;glass=0;strokeWidth=1;shadow=0;" vertex="1" parent="WIyWlLk6GJQsqaUBKTNV-1">
          <mxGeometry x="605" y="700" width="120" height="60" as="geometry" />
        </mxCell>
        <mxCell id="WFgXaqNdC1Ujew3TNshF-40" value="Deprecate site" style="whiteSpace=wrap;html=1;rounded=1;glass=0;strokeWidth=1;shadow=0;" vertex="1" parent="WIyWlLk6GJQsqaUBKTNV-1">
          <mxGeometry x="605" y="840" width="120" height="60" as="geometry" />
        </mxCell>
      </root>
    </mxGraphModel>
  </diagram>
</mxfile>
